<svg width="29" height="28" viewBox="0 0 29 28" fill="none" xmlns="http://www.w3.org/2000/svg">
<g clip-path="url(#clip0_50_133)">
<path d="M14.7991 28C22.5311 28 28.7991 21.732 28.7991 14C28.7991 6.26801 22.5311 0 14.7991 0C7.06709 0 0.799072 6.26801 0.799072 14C0.799072 21.732 7.06709 28 14.7991 28Z" fill="#F0F0F0"/>
<path d="M14.1902 14.0001H28.7989C28.7989 12.7365 28.6304 11.5124 28.3166 10.3479H14.1902V14.0001Z" fill="#D80027"/>
<path d="M14.1902 6.69565H26.744C25.887 5.29718 24.7912 4.06108 23.5136 3.04346H14.1902V6.69565Z" fill="#D80027"/>
<path d="M14.799 28C18.0939 28 21.1223 26.8612 23.5138 24.9565H6.08423C8.47571 26.8612 11.5041 28 14.799 28Z" fill="#D80027"/>
<path d="M2.85379 21.3043H26.7441C27.4322 20.1816 27.9657 18.9544 28.3167 17.6521H1.28125C1.63218 18.9544 2.16577 20.1816 2.85379 21.3043Z" fill="#D80027"/>
<path d="M7.28413 2.1863H8.55994L7.37322 3.04845L7.82653 4.44347L6.63986 3.58132L5.4532 4.44347L5.84476 3.23832C4.7999 4.10867 3.8841 5.12838 3.12942 6.26456H3.53821L2.78281 6.81335C2.66512 7.00968 2.55224 7.20912 2.44407 7.41152L2.80479 8.52173L2.13181 8.03277C1.96452 8.3872 1.8115 8.74962 1.67396 9.11958L2.07138 10.3428H3.53821L2.35149 11.205L2.80479 12.6L1.61813 11.7379L0.907299 12.2543C0.83615 12.8262 0.799072 13.4088 0.799072 14H14.7991C14.7991 6.26806 14.7991 5.35653 14.7991 0C12.0334 0 9.45528 0.802266 7.28413 2.1863ZM7.82653 12.6L6.63986 11.7379L5.4532 12.6L5.9065 11.205L4.71978 10.3428H6.18661L6.63986 8.94781L7.09311 10.3428H8.55994L7.37322 11.205L7.82653 12.6ZM7.37322 7.12671L7.82653 8.52173L6.63986 7.65959L5.4532 8.52173L5.9065 7.12671L4.71978 6.26456H6.18661L6.63986 4.86954L7.09311 6.26456H8.55994L7.37322 7.12671ZM12.8483 12.6L11.6616 11.7379L10.4749 12.6L10.9282 11.205L9.74152 10.3428H11.2083L11.6616 8.94781L12.1148 10.3428H13.5817L12.395 11.205L12.8483 12.6ZM12.395 7.12671L12.8483 8.52173L11.6616 7.65959L10.4749 8.52173L10.9282 7.12671L9.74152 6.26456H11.2083L11.6616 4.86954L12.1148 6.26456H13.5817L12.395 7.12671ZM12.395 3.04845L12.8483 4.44347L11.6616 3.58132L10.4749 4.44347L10.9282 3.04845L9.74152 2.1863H11.2083L11.6616 0.791273L12.1148 2.1863H13.5817L12.395 3.04845Z" fill="#0052B4"/>
</g>
<defs>
<clipPath id="clip0_50_133">
<rect width="28" height="28" fill="white" transform="translate(0.799072)"/>
</clipPath>
</defs>
</svg>
