<svg version="1.1" id="layer" xmlns="http://www.w3.org/2000/svg" xmlns:xlink="http://www.w3.org/1999/xlink" x="0px" y="0px"
	 viewBox="0 0 652 652" style="enable-background:new 0 0 652 652;" xml:space="preserve">
<path fill="#E30D24" d="M70.4,271.7c-13,0-25.5,5.2-34.7,14.4c-9.2,9.2-14.4,21.7-14.4,34.7c0,13,5.2,25.5,14.4,34.7
	c9.2,9.2,21.7,14.4,34.7,14.4c17.5,0,33.8-9.4,42.5-24.6c8.8-15.2,8.8-33.9,0-49.1C104.2,281.1,87.9,271.7,70.4,271.7"/>
<path fill="#FFFFFF" d="M98.8,340c-1-0.5-0.7-0.4-5.3-3.1c0,0-3.6,0.7-8.2,1.7c0.1,0,0.1,0,0.2,0.1c0.1,0,0.1,0.1,0.2,0.1
	c0.1,0.1,0.1,0.1,0.2,0.2c0.1,0.1,0.2,0.3,0.2,0.4c0,0.1,0,0.2,0,0.2l0,0.1v0.1c0,0.1,0,0.1,0,0.2c0,0,0,0.1,0,0.1l0,0.1H86
	c0,0,0-0.1,0-0.1c0,0,0-0.1,0-0.1l0-0.1c0-0.1,0-0.1-0.1-0.1l-0.1-0.2l-0.1-0.2l-0.1-0.2c0-0.1-0.1-0.1-0.1-0.1l-0.1-0.1
	c0,0-0.1-0.1-0.1-0.1c0,0-0.1-0.1-0.1-0.1c0,0-0.1,0-0.1-0.1c0,0-0.1,0-0.1,0l-1,0.2c0,0,0.1,0,0.1,0c0.1,0,0.1,0.1,0.2,0.1
	c0.1,0,0.1,0.1,0.2,0.1c0.1,0.1,0.1,0.1,0.2,0.2c0.1,0.1,0.1,0.1,0.1,0.2c0,0.1,0.1,0.1,0.1,0.2c0,0.1,0,0.2,0,0.2v0.2
	c0,0.1,0,0.1,0,0.2c0,0,0,0.1,0,0.1c0,0,0,0.1,0,0.1h-0.1l0-0.1c0,0,0-0.1,0-0.1l0-0.1l-0.1-0.1l-0.1-0.2c0-0.1-0.1-0.1-0.1-0.2
	l-0.1-0.2c0-0.1-0.1-0.1-0.1-0.1l-0.1-0.1c0,0-0.1-0.1-0.1-0.1c0,0-0.1-0.1-0.1-0.1l-0.1-0.1c0,0-0.1,0-0.1,0l-0.1,0l-2.6-2.2
	l0.1-0.7l-0.3-1.6l0.3-0.7v-2.2l-2.9,2.6l-0.1-0.1l8.4-9.9l-0.1-0.2l-2.5-0.4l0-0.1H88c0.5,0.6,1.4,0.7,2.1,0.5l0-0.1l-0.9-1.4
	l0.4-0.2c0.4-0.2,0.7-0.1,1,0.4c0.3,0.5,0.5,1.1,0.1,1.5l0.1,0.1c0.6-0.1,1.1-0.4,1.5-0.8c0.5-0.7,0.4-1.7-0.2-2.4
	c-0.5-0.6-1.5-1.5-1.5-1.5c0.1-1.1-0.5-2.1-1.6-2.6c-2.4-1-4.2-1.6-4.2-1.6l-5.7,0l0-0.1l5.7-0.7l1.7-1.5l6.5-2.6
	c0.4-0.2,0.7-0.5,0.9-0.9c0.8-2.3,3.4-9.2,3.4-9.2l8-10.8l-0.1-0.1l-5.2,3.7l-0.1-0.1l2.2-4.5l-0.1-0.1l-3.4,4.9l-0.1,0l0.4-4.9
	l-0.1,0l-1.2,5h-0.1l-2-5l-0.1,0l1.5,6l-0.2,2.8l-0.1,0l-0.3-2.5l-3.5-6l-0.1,0.1l2.8,6.4l0.2,4.7h-0.1l-0.6-4.4l-4.6-5.9l-0.1,0.1
	l4,6.1l0.3,6.4l-0.1,0l-0.8-6.1l-5.2-5.4l-0.1,0.1l4.4,5.7l0.5,7.4h-0.1l-1.2-7l-5.3-4.6l-0.1,0.1l4.6,5l0.8,7.7l-0.1,0l-1.6-7.3
	l-5.4-3.7l-0.1,0.1l4.6,4.1l1.3,7.6l-0.1,0l-2-7.1l-5.2-2.8l-0.1,0.1l4.4,3.2l1.4,7.4l-0.1,0l-2.3-6.8l-4.8-1.8l0,0.1l4.1,2.3
	l1.7,6.8l-0.1,0l-2.6-6.1l-4.6-0.8l0,0.1l3.8,1.4l2,5.9l-0.1,0l-2.9-5l-3.9-0.3l0,0.1l3,1l2.3,4.8l-0.1,0.1l-3.2-3.8l-3.5,0.2l0,0.1
	l2.8,0.5l2.5,3.7l-0.1,0.1l-3.3-2.7l-3.7,0.8l0,0.1h3.1l2.8,2.6l-0.1,0.1l-3.4-1.6l-3.9,0.6v0.1l3.5,0.1l2.9,1.9l0,0.1l-3.2-1.1
	l-5.2,1l0,0.1l4.9-0.1l3,1.4l0,0.1l-3.1-0.7l-7.9,1.3v0.1l6.2,0.5l0,0.1l-5,0.9v0.1l3.4,0.2v0.1l-3.9,1h0h0l1.7,2.2l-0.1,0.1
	l-3.8-3.2l-9.7-13.5l-8.8-4.5l-7-6.3l-2.1-5.8l-0.1,0l0.8,6.6l3.4,5.5l-0.1,0.1l-5-4.1l-2.4-4.6l-0.1,0l0.8,5.3l2.4,4.4l-0.1,0.1
	l-3.9-3.2l-2-3.1l-0.1,0l1,4.1l2.5,3.7l-0.1,0.1l-3.9-2.2l-1.7-2.2l-0.1,0.1l1.1,3.2l1.8,2.3l-0.1,0.1l-1.8-0.3l0,0.1l3.8,3.6l0,0.1
	l-3.3-0.2l0,0.2l4.8,3l0,0.1l-2.2,0.2l0,0.1l5.5,2.1v0.1l-2.2,0.8l0,0.1l13.3,1v0.1l-7.4,0.1l-0.1,1.5l9.3-0.1v0.1l-6.7,0.7
	l-0.3,1.8l9.1-1.2l0,0.1l-7.1,1.6l-0.1,2.1l9.3-2.6l0,0.1l-7.7,3l0,1.9l9.4-3.9l0,0.1l-7.6,4.1l0.3,2l9.2-4.7l0.1,0.1l-7.5,4.8
	l0.4,1.7l8.9-4.9l0.1,0.1l-6.9,4.6l0.7,1.8l7.3-4.4l0.1,0.1l-4.8,3.6l0.8,1.7l3.6-2.2l0.1,0.1l-1.3,1.2l0.7,1.3l0.8-0.3l1.1-0.4
	l0.6-0.2c0.1,0,0.2-0.1,0.3-0.1c0.1,0,0.2-0.1,0.3-0.2c0.2-0.1,0.4-0.2,0.5-0.4l0.1-0.1l0.1-0.1c0.1-0.1,0.1-0.2,0.2-0.2
	c0.1-0.1,0.1-0.2,0.2-0.2l0.2-0.2c0.1-0.1,0.1-0.2,0.1-0.2l0.1-0.2c0.1-0.1,0.1-0.3,0.2-0.4c0-0.1,0.1-0.2,0.1-0.3l0.1-0.2l0-0.1
	l0.1,0v0.1l0,0.2c0,0.1,0,0.2-0.1,0.4c0,0.2-0.1,0.3-0.1,0.5l-0.1,0.3l-0.1,0.3c0,0.1-0.1,0.2-0.2,0.3L68,327l-0.2,0.3l-0.1,0.1
	l-0.1,0.1c-0.2,0.2-0.4,0.3-0.6,0.5l-0.3,0.2l-0.3,0.2c-0.6,0.3-1.1,0.5-1.7,0.8L54.4,333l-6.7,10.5l0.4,0.3l7.5-8.7l0.1,0.1
	l-4.5,6.6l2.7-0.4l4.1-6.1l0.1,0.1l-3,5.9l2.6-0.2l2.8-5.7l0.1,0l-1.9,5.6l2.6-0.2l1.6-5.4l0.1,0l-0.9,5.2l2.7-0.5l0.6-4.8h0.1v4.6
	l2-1.1l-0.3-3.5l0.1,0l0.7,3.2l0.7,0.4l0.5,1.4l0.8,0.3l1.6,1.3l0.6,0.5l0,0l0,0.1l-1-0.4c-3.8,1-7.6,2.1-11.3,3.3h0l3.8,2.2
	l1.9,1.1l0.9,0.5l0.2,0.1l0.1,0l0,0l0,0v0l0,0c0.1,0.1,0.2,0.2,0.4,0.3c0.2,0.2,0.3,0.4,0.4,0.7c0.1,0.2,0.1,0.4,0,0.6
	c0,0.1-0.1,0.3-0.1,0.4l0,0.1l-0.1,0l0-0.1c0-0.1,0-0.2,0-0.3c0-0.2,0-0.4-0.1-0.5c-0.1-0.2-0.2-0.4-0.4-0.6
	c-0.1-0.1-0.2-0.2-0.3-0.2l0,0l-0.1,0l-0.1,0l-0.2-0.1c-0.3-0.1-0.6-0.3-0.9-0.4l-2-0.9l-1.3-0.6l-2.9,0.9c-1.3,0.4-1.2,2.1,0,2.5
	c1.8,0.7,3.6,1.3,5.4,2c1.3,0.5,2.7,0.4,3.9-0.3l4.7-2.1c3.3-1.8,8-5.6,8-5.6l0.1,0.1l-3.7,3.5c2.5-1.1,4.9-2.2,6.5-2.8
	c1.9-1,3.7-2.1,5.5-3.3l0.1,0.1l-2.5,2.3c2.9-0.5,7.5-1,10.1-1C100.5,343.9,100.6,341,98.8,340L98.8,340z M90.3,320
	c0.4,0.4,0.9,0.9,1.4,1.3c0.1,0.1,0.1,0.1,0.1,0.2c0,0,0,0.1,0.1,0.1l0,0.1c0,0.1,0.1,0.1,0.1,0.2c0,0.1,0,0.1,0,0.2
	c0,0.1,0,0.2,0,0.2c0,0,0,0.1,0,0.1c0,0,0,0.1,0,0.1c0,0.1,0,0.1-0.1,0.2c0,0,0,0.1,0,0.1l0,0.1l-0.1-0.1l0-0.1c0,0,0-0.1,0-0.1
	c0-0.1,0-0.1,0-0.2c0,0,0-0.1,0-0.1v-0.1c0-0.1,0-0.1,0-0.2c0-0.1,0-0.1-0.1-0.2c0-0.1-0.1-0.1-0.1-0.2c0,0,0-0.1,0-0.1
	c0,0,0-0.1-0.1-0.1c0,0-0.1-0.1-0.1-0.1c-0.5-0.4-1-0.8-1.5-1.1L90.3,320z M87.6,318.8c0-0.1,0-0.2,0.1-0.3c0,0,0,0,0,0
	c0,0,0,0,0-0.1l0.1-0.1c0,0,0.1-0.1,0.1-0.1l0,0l0.1,0h0l0.1,0.1l0,0c0,0-0.1,0.1-0.1,0.1c0,0,0,0,0,0l0,0l0,0c0,0,0,0,0,0
	c0,0,0,0,0,0c0,0,0,0,0,0c0,0,0,0,0,0c0,0,0,0,0,0v0c0,0,0,0,0,0.1c0,0,0,0,0,0.1v0l0,0c0,0,0,0,0,0c0,0,0,0,0,0c0,0,0,0,0,0h0l0,0
	c0,0,0.1,0,0.1,0c0,0,0.1,0,0.1,0l0.1,0l0,0l0,0c0,0,0,0,0,0c0,0,0,0,0,0c0,0,0,0,0,0l0,0c0,0,0,0,0,0l0-0.1c0,0,0,0,0-0.1v0
	c0,0,0-0.1,0-0.1v0l0.1-0.1l0,0c0,0,0,0.1,0.1,0.1l0,0c0,0,0,0.1,0,0.1v0.1c0,0,0,0.1,0,0.1v0c0,0.1-0.1,0.2-0.1,0.3
	c-0.1,0.1-0.1,0.1-0.2,0.2l0,0l0,0l0,0l-0.1,0c-0.1,0-0.1,0-0.2,0h-0.1c-0.1,0-0.2,0-0.3-0.1l0,0c0,0-0.1,0-0.1-0.1c0,0,0,0-0.1-0.1
	c0,0,0,0-0.1-0.1c0,0-0.1-0.1-0.1-0.2l0-0.1v0l0,0v0c0,0,0-0.1,0-0.1C87.5,318.9,87.6,318.8,87.6,318.8L87.6,318.8z M87.4,322
	c0-0.1,0.1-0.2,0.1-0.3c0,0,0.1-0.1,0.1-0.1l0,0l0,0h0l0,0c0.1-0.1,0.2-0.1,0.3-0.1c0.1,0,0.3,0,0.4,0c0,0,0.1,0,0.1,0l0.1,0
	c0,0,0.1,0,0.1,0.1c0,0,0.1,0,0.1,0.1l0.1,0.1l0,0.1c0,0,0,0,0,0l0,0.1l-0.1,0.1c0,0-0.1,0-0.1-0.1c0,0,0,0,0,0l0,0c0,0-0.1,0-0.1,0
	c0,0-0.1,0-0.1,0h0c0,0,0,0-0.1,0h-0.1c0,0-0.1,0-0.1,0c0,0-0.1,0-0.1,0.1l0,0l0,0c0,0,0,0,0,0c0,0-0.1,0.1-0.1,0.1c0,0,0,0,0,0.1
	c0,0,0,0,0,0.1c0,0,0,0.1,0,0.1c0,0,0,0.1,0,0.1v0c0,0,0,0,0,0c0,0,0,0.1,0,0.1l-0.1,0c0,0-0.1,0-0.1-0.1l0,0l0-0.1l0-0.1
	c0,0,0-0.1,0-0.1l0-0.1v-0.1C87.4,322.2,87.4,322.1,87.4,322L87.4,322z M43.2,293.8l0.1-0.1l4,5.3l6.5,3.1l-0.1,0.2l-7-2.7
	L43.2,293.8z M36.9,298.2l0.1-0.1l4.2,4l8.6,2.8l-0.1,0.2l-9.1-2.3L36.9,298.2z M34.7,300.5l0.1-0.1l4.6,3.7l10.1,2.8l0,0.2
	l-10.5-2.3L34.7,300.5z M35.5,306l0.1-0.2l14,2.9l0,0.2l-10.4-1.6L35.5,306z M50.5,310.9l-7.4-0.7l-3.7-1.1l0-0.2l11.1,1.8
	L50.5,310.9z M50.8,303.2l-7.5-2.5l-3.1-4.3l0.1-0.1l3.6,3.8l6.9,2.9L50.8,303.2z M51.7,305.9l-0.1-0.1l0-1.6l0.2,0l0.2,1l3.3-1.7
	l0.1,0.1L51.7,305.9z M52.2,308.4l0-1.6l0.2,0l0.2,1l4.4-2.3l0.1,0.1l-4.7,2.9L52.2,308.4z M53.6,310.7l-0.1-0.1l0-1.6l0.1,0l0.2,1
	l4.6-2.5l0.1,0.1L53.6,310.7z M55.4,312.6l-0.1-0.1l0-1.6l0.2,0l0.2,1l4.5-2.4l0.1,0.1L55.4,312.6z M57.7,314.3l-0.1-0.1l0-1.6
	l0.2,0l0.2,1l4-2.1l0.1,0.1L57.7,314.3z M60.2,315.8l-0.1-0.1l0-1.6l0.1,0l0.2,1l3.3-1.7l0.1,0.1L60.2,315.8z M62.6,317.3l-0.1-0.1
	l0-1.5h0.1l0.2,0.9l2.3-1.1l0.1,0.1L62.6,317.3z M64.6,318.8l-0.1-0.1l0.1-1.3h0.1l0.1,0.7l1.7-0.7l0.1,0.1L64.6,318.8z M66.1,320.4
	l-0.1-0.1l0.1-1.2l0.1,0l0.1,0.6l2-0.9l0.1,0.1L66.1,320.4z M67.3,324.1l-0.1-0.1l0.2-0.9h0.1l0,0.4l1-0.4l0.1,0.1L67.3,324.1z
	 M67,322.2l-0.1-0.1l0.1-0.9h0.1l0,0.4l1.4-0.7l0.1,0.1L67,322.2z M61.4,333.2L61.4,333.2l0.1-0.5l-0.4-0.2l0-0.1h1.1l0,0.1
	L61.4,333.2z M64.6,333.2L64.6,333.2l0.1-0.5l-0.4-0.2l0-0.1h1.1l0,0.1L64.6,333.2z M65.4,351.6l-1.1-0.4l-1.1-0.4l-2.3-0.7l0,0
	c-0.2,0-0.3-0.2-0.2-0.4c0-0.1,0.1-0.2,0.2-0.2l2.3-0.6l0,0.1l-1.5,0.8l1.6,0.7c0.4,0.2,0.7,0.3,1.1,0.5l1.1,0.5L65.4,351.6z
	 M77.4,331.7L77.4,331.7l0.1-0.6l-0.6-0.1v-0.1l1.4-0.2l0,0.1L77.4,331.7z M75,328.2L75,328.2l2.1-0.8l0.1,0.1l-1.2,1.8l-0.1,0
	l0.2-1L75,328.2z M74.1,332.5v-0.1l1.1-0.2l0,0.1l-0.8,0.8l-0.1,0l0.2-0.5L74.1,332.5z M74.2,324.8l0-0.1l2.1-0.6l0.1,0.1l-1.3,1.8
	l-0.1,0l0.2-1L74.2,324.8z M79.7,329.1L79.7,329.1l0.1-0.6l-0.6-0.1v-0.1l1.4-0.2l0,0.1L79.7,329.1z M81.4,323.7l0.2-0.6l-0.6-0.2
	l0-0.1l1.4-0.1l0,0.1L81.4,323.7L81.4,323.7z M83.2,317.5h1.1l0,0.1l-0.9,0.7l-0.1-0.1l0.2-0.4L83.2,317.5L83.2,317.5z M82.7,325.8
	l-0.8,0.8l-0.1,0l0.2-0.5l-0.5-0.1v-0.1L82.7,325.8L82.7,325.8z M82.6,319.6l-1.4,1.1l-0.1-0.1l0.4-0.7l-0.7-0.3l0-0.1h1.8
	L82.6,319.6z M80,316.8h1.4l0,0.1l-1.1,0.9l-0.1-0.1l0.3-0.5l-0.6-0.2L80,316.8z M79.9,324.8l-1.1,1.4l-0.1,0l0.2-0.8l-0.8-0.1v-0.1
	L79.9,324.8L79.9,324.8z M79.7,321.4L79.7,321.4l-1.3,1.7l-0.1,0l0.3-0.9l-0.9-0.2v-0.1L79.7,321.4z M79,318.9l-1.4,1.1l-0.1-0.1
	l0.4-0.7l-0.7-0.3l0-0.1h1.8L79,318.9z M76.3,316.8h1.1l0,0.1l-0.9,0.7l-0.1-0.1l0.2-0.4L76.3,316.8L76.3,316.8z M75.8,321L75.8,321
	l-1.5,1.7l-0.1-0.1l0.3-0.9l-1-0.3v-0.1L75.8,321z M72.3,330.2V330l1.7-0.4l0,0.1l-1.1,1.3l-0.1,0l0.2-0.8L72.3,330.2z M73.1,318.3
	h1.8l0,0.1l-1.4,1.1l-0.1-0.1l0.4-0.7l-0.7-0.3L73.1,318.3z M73,326.9l-1.1,1.4l-0.1,0l0.2-0.8l-0.8-0.1v-0.1l1.7-0.5L73,326.9z
	 M72.5,324.1l-1.1,1.3l-0.1-0.1l0.2-0.7l-0.7-0.1v-0.1L72.5,324.1L72.5,324.1z M70.5,321.6l1.4-0.2l0,0.1l-1,1l-0.1-0.1l0.2-0.6
	l-0.6-0.1L70.5,321.6z M66.9,331.3L66.9,331.3l0.1-0.5l-0.4-0.2l0-0.1h1.1l0,0.1L66.9,331.3z M67.8,333.8L67.8,333.8l0.1-0.5
	l-0.4-0.2l0-0.1h1.1l0,0.1L67.8,333.8z M69.1,329.6L69.1,329.6l0.2-0.6l-0.6-0.2l0-0.1l1.4,0l0,0.1L69.1,329.6z M69.9,332L69.9,332
	l0.2-0.6l-0.6-0.2l0-0.1H71l0,0.1L69.9,332z M71.3,334L71.3,334l0.1-0.5l-0.4-0.2l0-0.1h1.1l0,0.1L71.3,334z M66.5,345.7l-0.4,0.1
	l-0.3,0.1l-0.3,0.1l-0.4,0.1l-0.1-0.2l0,0l0.3-0.1l0.4-0.2l0.1,0l0.4-0.2c0.4-0.2,0.8-0.3,1.2-0.4l0.1,0l0.3-0.1
	c0.4-0.1,0.8-0.3,1.2-0.4c0.5-0.2,1-0.3,1.6-0.5l0.2-0.1l0.5-0.1l0.7-0.2l0.8-0.2l0.2,0l0.4-0.1h0l0.1,0.2l0,0l-0.4,0.1l-0.2,0.1
	l-0.7,0.2l-0.6,0.2l-0.1,0l-0.6,0.2c-0.5,0.2-1,0.3-1.5,0.5l-0.4,0.1l-1.1,0.4l-0.5,0.2L66.5,345.7z M78.6,343.5l-0.4,0.1l-0.9,0.3
	L77,344l-0.7,0.2c-0.3,0.1-0.6,0.2-1,0.3l-2.1,0.7l-1.4,0.5l-0.7,0.3c-0.2,0.1-0.4,0.2-0.7,0.2l-0.3,0.1l-0.6,0.2l-0.3,0.1
	c-0.3,0.1-0.6,0.2-0.9,0.3l-0.4,0.1l-0.5,0.2l0,0l-0.1-0.2l0,0L68,347l0.4-0.2l0.9-0.4l0.2-0.1l0.7-0.3l0.3-0.1l0.7-0.3l0.7-0.3
	c0.4-0.2,0.9-0.3,1.4-0.5l2.1-0.7l0.5-0.2l0.5-0.1l0.9-0.3l0.9-0.3l0.4-0.1l0.5-0.2l0.1,0.2L78.6,343.5z M73.7,341.3l0-0.1
	c0,0,0.1,0,0.1,0c0,0,0.1,0,0.1,0c0.1,0,0.1,0,0.2,0h0l0.1,0c0,0,0.1,0,0.1,0c0.1,0,0.1,0,0.2,0.1c0.1,0,0.1,0.1,0.2,0.1
	c0.1,0.1,0.1,0.1,0.2,0.2l0,0.1c0,0,0.1,0.1,0.1,0.1c0,0.1,0.1,0.1,0.1,0.2c0,0.1,0,0.2,0.1,0.2l0,0.1v0.1c0,0.1,0,0.1,0,0.2
	c0,0,0,0.1,0,0.1l0,0.1h-0.1l0-0.1c0,0,0-0.1,0-0.1c0,0,0-0.1,0-0.1c0-0.1,0-0.1-0.1-0.1c0-0.1-0.1-0.1-0.1-0.2l-0.1-0.1l-0.1-0.1
	l-0.1-0.1c0,0,0,0,0,0l-0.1-0.1c0,0-0.1-0.1-0.1-0.1c0,0-0.1-0.1-0.1-0.1l-0.1-0.1L73.7,341.3z M77.1,340.4
	C77.2,340.4,77.2,340.4,77.1,340.4c0.1,0,0.2,0.1,0.3,0.1c0.1,0,0.1,0.1,0.2,0.1c0.1,0.1,0.1,0.1,0.2,0.2c0.1,0.1,0.1,0.1,0.1,0.2
	c0,0.1,0.1,0.1,0.1,0.2c0,0.1,0,0.2,0.1,0.2l0,0.1v0.1c0,0.1,0,0.1,0,0.2c0,0,0,0.1,0,0.1l0,0.1h-0.1c0,0,0-0.1,0-0.1
	c0,0,0-0.1,0-0.1l0-0.1c0-0.1,0-0.1-0.1-0.1c0-0.1-0.1-0.1-0.1-0.2l-0.1-0.1l-0.1-0.2c0-0.1-0.1-0.1-0.1-0.1l-0.1-0.1
	c0,0-0.1-0.1-0.1-0.1c-0.1-0.1-0.2-0.1-0.3-0.2c0,0-0.1,0-0.1-0.1c0,0,0,0,0,0l-0.9,0.2l-0.1,0l0.1,0c0.1,0,0.1,0.1,0.2,0.1
	c0.1,0,0.1,0.1,0.2,0.1c0.1,0.1,0.1,0.1,0.2,0.2c0.1,0.1,0.1,0.1,0.1,0.2c0,0.1,0.1,0.1,0.1,0.2c0,0.1,0,0.2,0.1,0.2l0,0.1v0.1
	c0,0.1,0,0.1,0,0.2c0,0,0,0.1,0,0.1c0,0,0,0.1,0,0.1h-0.1l0-0.1c0,0,0-0.1,0-0.1l0-0.1l-0.1-0.2l-0.1-0.1l-0.1-0.2
	c0-0.1-0.1-0.1-0.1-0.1c0,0-0.1-0.1-0.1-0.1l-0.1-0.1c0,0-0.1-0.1-0.1-0.1l-0.1-0.1l-0.1-0.1l-0.1,0l-0.1,0l-1.5-1.8l-0.8-4.2
	l0.1-0.1l2.9,3.5l1,0l2.6,1.4L77.1,340.4z M81.8,339.3L81.8,339.3l0.1-0.1c0,0,0.1,0,0.1,0c0.1,0,0.1,0,0.2,0h0l0.1,0l0.1,0
	c0.2,0.1,0.3,0.1,0.4,0.2c0.1,0,0.1,0.1,0.1,0.1l0,0c0.1,0.1,0.1,0.1,0.1,0.2c0,0.1,0.1,0.1,0.1,0.2c0,0.1,0,0.2,0,0.2l0,0.1v0.1
	c0,0.1,0,0.1,0,0.2c0,0,0,0.1,0,0.1l0,0.1h-0.1l0-0.1c0,0,0-0.1,0-0.1l0-0.1l-0.1-0.1l-0.1-0.2l-0.1-0.2c0-0.1-0.1-0.1-0.1-0.2
	l-0.1-0.1c0,0,0,0-0.1-0.1c0,0,0,0-0.1-0.1l-0.1-0.1l-0.1-0.1l-0.1-0.1L81.8,339.3L81.8,339.3z M85.4,341.6l-0.2,0.1l-0.1,0
	l-0.3,0.1c-0.5,0.1-1,0.2-1.4,0.3l-0.1,0c-0.4,0.1-0.9,0.2-1.4,0.3l-0.4,0l-0.1,0l-0.2,0h0l0-0.2l0,0l0.2-0.1l0.1,0l0.4-0.1
	c0.4-0.1,1-0.3,1.4-0.4l0.8-0.2l0.7-0.1l0.4,0l0.1,0l0.2,0h0V341.6L85.4,341.6z M87.1,340L87.1,340l-0.1-0.2h0l0.2-0.1
	c0.2-0.1,0.4-0.1,0.6-0.2c0.6-0.1,1.2-0.3,1.9-0.4h0l1-0.2l0.8-0.1h0.1l0.5-0.1l0.1,0l0.2,0h0l0,0.2h0l-0.2,0.1l-0.2,0l-0.4,0.1
	l-0.5,0.1l-0.4,0.1l-0.8,0.2l-0.2,0c-0.8,0.1-1.6,0.3-2.3,0.4l-0.2,0L87.1,340L87.1,340z M94.8,340.2l-0.3,0l-0.5,0.1
	c-0.4,0.1-0.8,0.1-1.2,0.2l-0.7,0.1l-0.1,0l-0.6,0.1l-0.5,0.1l-0.9,0.1l-0.5,0.1l-0.2,0l-0.6,0.1l-0.6,0.1l-0.3,0l-0.4,0l0-0.2
	l0.4-0.1l0.2-0.1l0.6-0.1l0.3-0.1l0.5-0.1l0.4-0.1c0.2,0,0.4-0.1,0.7-0.1l0.7-0.1l0.7-0.1l0.7-0.1l0.8-0.1l0.4,0l0.8-0.1l0.1,0
	l0.3,0h0l0,0.2L94.8,340.2z M94.8,340.2"/>
<path fill="#FFFFFF" d="M148.2,298.5l1.8,0.4c4.3,0.8,4.9,3.4,4.9,5.7v30c0,2.4-0.6,4.9-4.9,5.7l-1.8,0.4v1h21.4v-1l-1.8-0.4
	c-4.3-0.9-4.9-3.3-4.9-5.7v-30c0-2.4,0.6-4.9,4.9-5.7l1.8-0.4v-1h-21.4V298.5 M582.2,297.5v14.8h0.9l2.2-5.5
	c2.2-5.5,4.4-8.4,10.2-8.4h2.4v36.1c0,2.4-0.5,5.2-4.9,5.8l-1.8,0.3v1h21.4v-1l-1.9-0.3c-4.3-0.7-4.9-3.5-4.9-5.9v-35.9h2.4
	c5.7,0,8,2.9,10.2,8.4l2.2,5.5h0.9v-14.9H582.2 M563.1,298.5l1.8,0.2c3.2,0.4,6.3,2.1,6.3,10.5l0.1,20.1L554.3,309
	c-5.2-6-7.2-8.6-8.7-11.3l-0.1-0.1h-15.6v1h0.3c3.2,0.6,5.2,1.9,8.6,5.6l0.7,0.7v23.1c0,9.9-3.1,11.5-6.8,12.4l-1.3,0.3v1h17.5v-1
	l-1.3-0.3c-3.3-0.9-6.8-1.8-6.8-12.5l-0.2-21.9l30.9,36.5l0.2,0.1h1v-33.4c0-8.4,3.2-10,6.3-10.5l1.7-0.2v-1h-17.4V298.5
	 M383.8,333.7c-2.9,5.1-6.6,6.9-13.3,6.9h-1.9c-3.7,0-5.4-1.8-5.4-5.9v-15.3l2.7,0.1c6.7,0.2,8.5,0.4,10.7,6.9l0.7,2.4h1v-19.8h-1
	l-0.7,2.4c-2.1,6.5-4.1,6.8-10.7,6.9h-2.7v-19.7h4.7c8,0,11.5,1.7,14.1,6.6l3,5.5h0.9v-13h-37.3v1l1.8,0.4c4.1,0.7,4.9,2.7,4.9,5.6
	v30.1c0,2.4-0.6,5.2-4.9,5.8l-1.8,0.3v1h39v-13h-0.9L383.8,333.7 M523.4,333.8c-2.9,5-6.6,6.9-13.3,6.9h-1.8c-3.8,0-5.5-1.8-5.5-5.9
	v-15.3l2.7,0.1c6.8,0.2,8.6,0.4,10.7,6.9l0.7,2.4h1v-19.8h-1l-0.7,2.4c-2.1,6.5-4.1,6.8-10.7,6.9h-2.6v-19.7h4.8
	c7.9,0,11.4,1.7,14.1,6.6l2.9,5.5h0.9v-13h-37.3v1l1.8,0.4c4.1,0.7,4.9,2.7,4.9,5.6v30.1c0,2.4-0.5,5.2-4.9,5.8l-1.8,0.3v1h39v-13
	h-0.9l-2.9,5.2 M235.3,334.5v-36h5.6c11.2,0,17.8,7.9,17.8,21.1c0,13.4-6.3,21.1-17.2,21.1H240C236,340.6,235.2,338.2,235.3,334.5
	 M242.7,297.5h-39.4v1l1.8,0.2c4,0.6,6.3,2.2,6.3,9.2l0.1,21.4L194.5,309c-5-5.8-7.2-8.6-8.7-11.3l-0.1-0.1H170v1h0.3
	c3.2,0.6,5.2,1.9,8.6,5.6l0.7,0.7v23.1c0,9.9-3.2,11.5-6.9,12.4l-1.3,0.3v1H189v-1l-1.3-0.3c-3.3-0.9-6.8-1.8-6.8-12.5l-0.2-21.9
	l31.1,36.6h1v-35.6c0-5.5,2.4-8.3,7.4-8.3c4.8,0,7.3,2.8,7.3,8.3v27.7c0,2.6-0.6,5.1-4.9,5.8l-1.8,0.3v1h22.1c7.6,0,14-2.4,18.4-6.8
	c4.1-4.1,6.3-9.7,6.3-15.5c0-5.9-2.2-11.3-6.3-15.2C256.1,299.5,249.5,297.2,242.7,297.5 M455.3,334.5v-36h5.6
	c11.2,0,17.8,7.9,17.8,21.1c0,13.4-6.3,21.1-17.2,21.1h-1.4C456.1,340.6,455.3,338.2,455.3,334.5 M462.8,297.5h-39.4v1l1.8,0.2
	c4,0.6,6.3,2.2,6.3,9.2l0.2,21.4L414.6,309c-5.2-6-7.2-8.6-8.7-11.3l-0.2-0.1h-15.6v1h0.3c3.2,0.6,5.2,1.9,8.6,5.6l0.7,0.7v23.1
	c0,9.9-3.2,11.5-6.9,12.4l-1.3,0.3v1H409v-1l-1.3-0.3c-3.3-0.9-6.8-1.8-6.9-12.5l-0.1-21.9l30.9,36.5l0.1,0.1h1v-35.6
	c0-5.5,2.4-8.3,7.4-8.3c4.8,0,7.4,2.8,7.4,8.3v27.7c0,2.6-0.7,5.1-5,5.8l-1.8,0.3v1h22.1c7.6,0,14-2.4,18.4-6.8
	c4.1-4.1,6.3-9.7,6.3-15.5c0-5.9-2.2-11.3-6.3-15.2C476.2,299.5,469.6,297.2,462.8,297.5 M330.6,297.5h-19.1v1l1.8,0.4
	c4.3,0.8,4.9,3.2,4.9,5.7v30c0,2.5-0.6,4.9-4.9,5.7l-1.8,0.4v1h22.1v-1l-1.5-0.3c-5-1-5.9-2.1-5.9-6.4v-35.5h1.8
	c6.8,0,10.8,4.6,10.8,12.2c0,7.7-4.1,12.3-10.8,12.3h-0.5v1.1h3c9.9,0,16.9-5.5,16.9-13.4C347.5,303,340.5,297.5,330.6,297.5
	 M303.4,333.7c-2.9,5-6.6,6.9-13.3,6.9h-1.9c-3.7,0-5.4-1.8-5.4-5.9v-15.3l2.7,0.1c6.7,0.2,8.5,0.4,10.7,6.9l0.7,2.4h0.9v-19.8h-0.9
	l-0.7,2.4c-2.1,6.5-4.1,6.8-10.7,6.9h-2.7v-19.7h4.7c7.9,0,11.5,1.7,14.1,6.6l3,5.5h0.9v-13h-37.3v1l1.8,0.4
	c4.1,0.7,4.9,2.7,4.9,5.6v30.1c0,2.4-0.6,5.2-4.9,5.8l-1.8,0.3v1h39v-13h-1L303.4,333.7"/>
</svg>
