<svg width="44" height="44" viewBox="0 0 44 44" fill="none" xmlns="http://www.w3.org/2000/svg">
<path d="M13.8983 21.6484C13.8983 17.3745 17.3755 13.8975 21.6492 13.8975C25.9231 13.8975 29.4001 17.3745 29.4001 21.6484C29.4001 25.9221 25.9231 29.3993 21.6492 29.3993C17.3755 29.3993 13.8983 25.9221 13.8983 21.6484Z" fill="white"/>
<path fill-rule="evenodd" clip-rule="evenodd" d="M13.3763 3.60815H29.9247C35.3106 3.60815 39.6922 7.98973 39.6922 13.3756V29.9243C39.6922 35.3099 35.3106 39.6914 29.925 39.6914H13.3763C7.99046 39.6914 3.60889 35.3099 3.60889 29.9243V13.3756C3.60889 7.98973 7.99046 3.60815 13.3763 3.60815ZM11.7843 21.6498C11.7843 27.0901 16.2102 31.516 21.6505 31.516C27.0909 31.516 31.5168 27.0901 31.5168 21.6498C31.5168 16.2094 27.0909 11.7835 21.6505 11.7835C16.2102 11.7835 11.7843 16.2094 11.7843 21.6498ZM28.8373 11.195C28.8373 12.8027 30.145 14.1103 31.7527 14.1103C33.3604 14.1103 34.6683 12.8027 34.6683 11.195C34.6683 9.58725 33.3604 8.27933 31.7527 8.27933C30.145 8.27933 28.8373 9.58725 28.8373 11.195Z" fill="white"/>
</svg>
