<svg width="219" height="98" viewBox="0 0 219 98" fill="none" xmlns="http://www.w3.org/2000/svg">
<path d="M22.5486 55.5045L123.15 20.8142V62.4425L39.8937 97.1328L22.5486 55.5045Z" fill="url(#paint0_linear_19_645)"/>
<path d="M196 34.6903L0 0L17.3451 41.6283L196 76.3186V34.6903Z" fill="url(#paint1_linear_19_645)"/>
<path d="M33.2479 19.6784L40.2351 46.433L47.1969 19.6784H56.9535V56.6724H49.4582V46.6616L50.1442 31.239L42.7505 56.6724H37.6689L30.2752 31.239L30.9612 46.6616V56.6724H23.4913V19.6784H33.2479ZM78.9598 40.6654H67.323V50.4728H81.0941V56.6724H59.8531V19.6784H81.0432V25.9034H67.323V34.6437H78.9598V40.6654ZM101.398 40.6654H89.7612V50.4728H103.532V56.6724H82.2913V19.6784H103.481V25.9034H89.7612V34.6437H101.398V40.6654ZM129.197 25.9034H120.05V56.6724H112.555V25.9034H103.561V19.6784H129.197V25.9034Z" fill="white"/>
<path d="M138.169 56.6724H130.699V19.6784H138.169V56.6724ZM141.323 56.6724V19.6784H151.105C155.424 19.6784 158.863 21.0505 161.421 23.7945C163.995 26.5386 165.308 30.299 165.359 35.0756V41.0719C165.359 45.9333 164.072 49.7529 161.497 52.5309C158.939 55.2919 155.407 56.6724 150.902 56.6724H141.323ZM148.793 25.9034V50.4728H151.029C153.519 50.4728 155.272 49.8207 156.288 48.5164C157.305 47.1952 157.838 44.9254 157.889 41.7071V35.2789C157.889 31.8234 157.406 29.4181 156.441 28.0631C155.475 26.691 153.832 25.9711 151.512 25.9034H148.793ZM193.666 41.5038C193.666 46.4669 192.489 50.3204 190.135 53.0644C187.797 55.8085 184.545 57.1805 180.378 57.1805C176.228 57.1805 172.967 55.8254 170.596 53.1153C168.225 50.3881 167.022 46.577 166.988 41.6817V35.3551C166.988 30.2735 168.165 26.3099 170.52 23.4642C172.874 20.6016 176.143 19.1703 180.327 19.1703C184.443 19.1703 187.687 20.5762 190.058 23.388C192.43 26.1829 193.632 30.1126 193.666 35.1773V41.5038ZM186.171 35.3043C186.171 31.9674 185.697 29.4859 184.748 27.8598C183.8 26.2337 182.326 25.4206 180.327 25.4206C178.345 25.4206 176.88 26.2083 175.932 27.7836C174.983 29.3419 174.492 31.7218 174.458 34.9232V41.5038C174.458 44.7391 174.941 47.1275 175.906 48.6689C176.872 50.1933 178.362 50.9556 180.378 50.9556C182.326 50.9556 183.774 50.2103 184.723 48.7197C185.671 47.2122 186.154 44.8831 186.171 41.7325V35.3043ZM203.375 50.4728H216.486V56.6724H195.905V19.6784H203.375V50.4728Z" fill="#FF4A11"/>
<defs>
<linearGradient id="paint0_linear_19_645" x1="19.0796" y1="100.602" x2="123.15" y2="65.9116" gradientUnits="userSpaceOnUse">
<stop stop-color="#FF4A11"/>
<stop offset="1" stop-color="#FF4A11" stop-opacity="0"/>
</linearGradient>
<linearGradient id="paint1_linear_19_645" x1="17.3451" y1="38.1593" x2="196" y2="62.4425" gradientUnits="userSpaceOnUse">
<stop stop-color="#FF4A11"/>
<stop offset="1" stop-color="#FF4A11" stop-opacity="0"/>
</linearGradient>
</defs>
</svg>
