<svg width="131" height="56" viewBox="0 0 131 56" fill="none" xmlns="http://www.w3.org/2000/svg">
<path d="M13 32L71 12V36L23 56L13 32Z" fill="url(#paint0_linear_19_387)"/>
<path d="M113 20L0 0L10 24L113 44V20Z" fill="url(#paint1_linear_19_387)"/>
<path d="M20.1951 11.6719H23.9598L28.3104 26.2617L32.6463 11.6719H35.9715L29.907 33H26.699L20.1951 11.6719ZM18.6717 11.6719H22.2605L22.8172 25.7344V33H18.6717V11.6719ZM34.3309 11.6719H37.9344V33H33.8035V25.7344L34.3309 11.6719ZM51.8668 29.4551V33H42.5943V29.4551H51.8668ZM43.9273 11.6719V33H39.6354V11.6719H43.9273ZM50.6217 20.3145V23.7568H42.5943V20.3145H50.6217ZM51.8375 11.6719V15.2314H42.5943V11.6719H51.8375ZM64.8031 29.4551V33H55.5307V29.4551H64.8031ZM56.8637 11.6719V33H52.5717V11.6719H56.8637ZM63.558 20.3145V23.7568H55.5307V20.3145H63.558ZM64.7738 11.6719V15.2314H55.5307V11.6719H64.7738ZM74.2971 11.6719V33H70.0344V11.6719H74.2971ZM79.5998 11.6719V15.2314H64.8342V11.6719H79.5998Z" fill="white"/>
<path d="M84.7432 11.6719V33H80.4805V11.6719H84.7432ZM92.1717 33H88.407L88.4363 29.4551H92.1717C93.2068 29.4551 94.0125 29.2695 94.5887 28.8984C95.1648 28.5273 95.5701 27.9414 95.8045 27.1406C96.0486 26.3398 96.1707 25.29 96.1707 23.9912V20.666C96.1707 19.6797 96.1072 18.8447 95.9803 18.1611C95.8533 17.4678 95.6385 16.9111 95.3357 16.4912C95.033 16.0615 94.6277 15.7441 94.1199 15.5391C93.6121 15.334 92.9822 15.2314 92.2303 15.2314H88.3338V11.6719H92.2303C93.4607 11.6719 94.5789 11.8721 95.5848 12.2725C96.5906 12.6729 97.4549 13.2588 98.1775 14.0303C98.9002 14.792 99.4568 15.7344 99.8475 16.8574C100.238 17.9805 100.433 19.2598 100.433 20.6953V23.9912C100.433 25.4365 100.238 26.7158 99.8475 27.8291C99.4568 28.9424 98.9002 29.8848 98.1775 30.6562C97.4646 31.418 96.6004 31.999 95.5848 32.3994C94.5691 32.7998 93.4314 33 92.1717 33ZM90.8973 11.6719V33H86.6053V11.6719H90.8973ZM116.754 20.6807V24.2402C116.754 25.7441 116.568 27.0625 116.197 28.1953C115.836 29.3184 115.318 30.2607 114.644 31.0225C113.98 31.7744 113.174 32.3408 112.227 32.7217C111.29 33.1025 110.25 33.293 109.107 33.293C107.964 33.293 106.92 33.1025 105.972 32.7217C105.035 32.3408 104.224 31.7744 103.541 31.0225C102.867 30.2607 102.344 29.3184 101.973 28.1953C101.602 27.0625 101.417 25.7441 101.417 24.2402V20.6807C101.417 19.1377 101.597 17.79 101.959 16.6377C102.32 15.4756 102.842 14.5088 103.526 13.7373C104.21 12.9561 105.02 12.3701 105.958 11.9795C106.895 11.5791 107.935 11.3789 109.078 11.3789C110.22 11.3789 111.26 11.5791 112.198 11.9795C113.135 12.3701 113.946 12.9561 114.629 13.7373C115.313 14.5088 115.836 15.4756 116.197 16.6377C116.568 17.79 116.754 19.1377 116.754 20.6807ZM112.491 24.2402V20.6514C112.491 19.6357 112.418 18.7715 112.271 18.0586C112.125 17.3359 111.905 16.7451 111.612 16.2861C111.319 15.8271 110.963 15.4902 110.543 15.2754C110.123 15.0605 109.634 14.9531 109.078 14.9531C108.521 14.9531 108.028 15.0605 107.598 15.2754C107.178 15.4902 106.822 15.8271 106.529 16.2861C106.246 16.7451 106.031 17.3359 105.884 18.0586C105.748 18.7715 105.679 19.6357 105.679 20.6514V24.2402C105.679 25.2168 105.753 26.0518 105.899 26.7451C106.046 27.4385 106.265 28.0049 106.558 28.4443C106.851 28.8838 107.208 29.2109 107.628 29.4258C108.057 29.6309 108.55 29.7334 109.107 29.7334C109.654 29.7334 110.137 29.6309 110.557 29.4258C110.987 29.2109 111.343 28.8838 111.627 28.4443C111.91 28.0049 112.125 27.4385 112.271 26.7451C112.418 26.0518 112.491 25.2168 112.491 24.2402ZM129.91 29.4551V33H121.047V29.4551H129.91ZM122.366 11.6719V33H118.074V11.6719H122.366Z" fill="#D20A0A"/>
<defs>
<linearGradient id="paint0_linear_19_387" x1="11" y1="58" x2="71" y2="38" gradientUnits="userSpaceOnUse">
<stop stop-color="#FF1111"/>
<stop offset="1" stop-color="#FF1111" stop-opacity="0"/>
</linearGradient>
<linearGradient id="paint1_linear_19_387" x1="9.99999" y1="22" x2="113" y2="36" gradientUnits="userSpaceOnUse">
<stop stop-color="#FF1111"/>
<stop offset="1" stop-color="#FF1111" stop-opacity="0"/>
</linearGradient>
</defs>
</svg>
