<svg width="44" height="44" viewBox="0 0 44 44" fill="none" xmlns="http://www.w3.org/2000/svg">
<path d="M13.5982 10.825C19.7808 10.825 24.7923 15.8255 24.7923 21.9937C24.7923 28.1618 19.7804 33.162 13.5982 33.162C7.41609 33.162 2.40381 28.1618 2.40381 21.9937C2.40381 15.8255 7.41571 10.825 13.5982 10.825ZM31.4749 11.4792C34.5662 11.4792 37.0722 16.1862 37.0722 21.9937H37.0725C37.0725 27.7996 34.5666 32.5081 31.4753 32.5081C28.3841 32.5081 25.8781 27.7996 25.8781 21.9937C25.8781 16.1877 28.3837 11.4792 31.4749 11.4792ZM40.1269 12.5743C41.2139 12.5743 42.0955 16.7914 42.0955 21.9937C42.0955 27.1944 41.2143 31.413 40.1269 31.413C39.0396 31.413 38.1587 27.1955 38.1587 21.9937C38.1587 16.7918 39.04 12.5743 40.1269 12.5743Z" fill="white"/>
</svg>
