<svg width="45" height="44" viewBox="0 0 45 44" fill="none" xmlns="http://www.w3.org/2000/svg">
<path fill-rule="evenodd" clip-rule="evenodd" d="M6.98933 19.6437C16.6754 15.57 23.1342 12.8843 26.3659 11.5867C35.5931 7.88185 37.5105 7.23827 38.7601 7.21702C39.035 7.21235 39.6496 7.27811 40.0476 7.58993C40.3838 7.85322 40.4763 8.2089 40.5205 8.45853C40.5648 8.70817 40.6199 9.27684 40.5761 9.72118C40.0761 14.7929 37.9125 27.1005 36.8117 32.7808C36.346 35.1844 35.4289 35.9903 34.5411 36.0692C32.6116 36.2406 31.1464 34.8382 29.2776 33.6557C26.3533 31.8052 24.7012 30.6533 21.8627 28.8476C18.5822 26.7607 20.7088 25.6138 22.5783 23.7393C23.0676 23.2488 31.569 15.7842 31.7335 15.107C31.7541 15.0224 31.7732 14.7067 31.5789 14.54C31.3846 14.3733 31.0979 14.4303 30.891 14.4756C30.5977 14.5399 25.9261 17.5206 16.8761 23.4178C15.5501 24.2968 14.349 24.7251 13.2729 24.7026C12.0866 24.6779 9.80452 24.0551 8.10806 23.5228C6.02728 22.8698 4.37353 22.5246 4.51753 21.4158C4.59254 20.8382 5.41647 20.2475 6.98933 19.6437Z" fill="white"/>
</svg>
