<svg width="44" height="44" viewBox="0 0 44 44" fill="none" xmlns="http://www.w3.org/2000/svg">
<path d="M21.6657 10.8869C20.7401 12.1796 20.2055 13.6926 20.1181 15.2571C20.1091 15.4183 19.9664 15.5416 19.806 15.5222L19.7725 15.5181C19.0041 15.4254 18.3858 15.3508 16.5595 14.6287C13.5268 13.429 10.5329 11.2006 7.57954 7.94484C7.44644 7.79811 7.20213 7.84521 7.12599 8.0281C1.23426 22.1804 9.93159 27.8335 12.8236 29.6514C12.9866 29.7539 12.9886 29.9853 12.8259 30.0884C10.217 31.7433 6.23384 32.3226 4.49133 32.4998C4.26147 32.5232 4.16495 32.7959 4.34714 32.938C7.25565 35.206 15.2175 36.8151 20.785 35.7443C29.3186 34.1029 37.7292 27.7112 37.8071 14.5839C37.8078 14.466 37.8466 14.349 37.9163 14.254C39.0195 12.7519 39.3564 11.575 39.8636 9.22264C39.9131 8.99301 39.6636 8.81187 39.4554 8.92063C37.5205 9.93138 36.5044 9.76229 35.4128 9.74344C35.2703 9.74098 35.1336 9.68566 35.0291 9.58878C33.8356 8.48255 32.3417 7.72164 30.7179 7.39546C29.02 7.05443 27.2556 7.20379 25.6454 7.82485C24.0352 8.44591 22.6509 9.51106 21.6657 10.8869Z" fill="white"/>
</svg>
