<svg width="90" height="32" viewBox="0 0 90 32" fill="none" xmlns="http://www.w3.org/2000/svg">
<g clip-path="url(#clip0_19_373)">
<path d="M7.70261 0.983643H18.2097C16.1225 8.52721 14.0469 16.074 11.9617 23.6186C11.8729 23.8865 11.8702 24.197 12.0342 24.4378C12.2991 24.8418 12.8026 25.0018 13.2621 25.0274C13.8078 25.0417 14.3536 25.0295 14.8999 25.0337C15.4921 25.0305 16.1072 25.0529 16.6698 24.8365C17.059 24.6834 17.2986 24.2975 17.4028 23.9062C19.5159 16.2659 21.6196 8.6229 23.7359 0.983643H34.1812C31.9601 9.01097 29.747 17.0404 27.5286 25.0688C27.2896 25.921 27.0643 26.7774 26.8158 27.6269C26.4958 28.6604 25.9675 29.6657 25.1278 30.3658C24.5069 30.8969 23.7296 31.1978 22.9459 31.3897C21.8375 31.6677 20.6931 31.7416 19.5572 31.8171H6.02572C4.69045 31.7331 3.32292 31.4253 2.20975 30.6465C1.47945 30.1484 0.891932 29.4147 0.652905 28.5525C0.534978 28.1819 0.558246 27.788 0.560362 27.4047C0.562477 26.9481 0.718479 26.5143 0.832704 26.0778C3.13995 17.7135 5.44931 9.34908 7.75549 0.984174L7.70261 0.983643Z" fill="#D20A0A"/>
<path d="M39.1514 0.983643H61.7309C61.1038 3.24033 60.4845 5.49968 59.86 7.75743C52.3327 7.75903 44.806 7.7585 37.2788 7.75796C37.9023 5.49968 38.5221 3.24033 39.1514 0.983643Z" fill="#D20A0A"/>
<path d="M71.926 0.983643H89.055C88.808 2.00806 88.4992 3.01812 88.2279 4.03669C87.8853 5.27694 87.5426 6.51718 87.2004 7.75743C83.4945 7.7585 79.7879 7.75743 76.082 7.75797C75.5394 7.76275 74.9752 7.75797 74.4648 7.96901C74.0492 8.14551 73.8329 8.58303 73.7277 9.00034C72.3755 13.9023 71.0217 18.8048 69.6706 23.7074C69.5722 24.012 69.6563 24.3602 69.8821 24.5856C70.2137 24.9264 70.7092 25.0332 71.1677 25.0332C75.2041 25.0343 79.2406 25.0332 83.2771 25.0343C82.6542 27.2952 82.0296 29.5562 81.4056 31.8171H64.2496C62.9646 31.7352 61.6531 31.4498 60.5622 30.7326C59.8461 30.2722 59.2438 29.6035 58.9556 28.7917C58.6912 28.0948 58.7134 27.3181 58.9133 26.6078C60.8525 19.5831 62.7922 12.5584 64.7324 5.5337C65.0138 4.50025 65.4627 3.48115 66.2211 2.70978C66.7219 2.19359 67.3575 1.82359 68.036 1.59819C69.2882 1.17396 70.6161 1.07083 71.926 0.983643Z" fill="#D20A0A"/>
<path d="M35.9824 12.434C43.5107 12.4329 51.039 12.4334 58.5673 12.434C57.9427 14.6976 57.3177 16.9606 56.6926 19.2237C52.6471 19.2253 48.6022 19.2237 44.5567 19.2248C43.3975 23.4218 42.241 27.6194 41.0818 31.8165L41.1532 31.817H30.6323C32.4192 25.3569 34.1987 18.8952 35.9824 12.434Z" fill="#D20A0A"/>
</g>
<defs>
<clipPath id="clip0_19_373">
<rect width="88.6462" height="30.8335" fill="white" transform="translate(0.480957 0.983643)"/>
</clipPath>
</defs>
</svg>
