<svg xmlns="http://www.w3.org/2000/svg" viewBox="0 0 185 994" fill="none">
    <path d="M0 36.8858L0 956.054C0 977.139 16.8726 994 36.9014 994H172.876C179.192 994 184.468 987.676 184.468 981.351V920.217C184.468 913.889 179.192 908.624 172.876 908.624H104.353C98.0362 908.624 91.7041 902.288 91.7041 895.976V98.0245C91.7041 90.6481 98.0401 85.3759 104.353 85.3759H172.876C179.192 85.3759 184.468 80.1115 184.468 72.7273V12.6486C184.468 5.26046 179.192 0 172.876 0L36.9014 0C16.8726 0 0 16.8648 0 36.8897L0 36.8858Z" fill="white"/>
</svg>