<svg xmlns="http://www.w3.org/2000/svg" width="1397" height="347" viewBox="0 0 1397 347" fill="none"> <path d="M1344 160.931L1313.81 154.819C1295.85 151.38 1282.86 142.974 1282.86 130.365C1282.86 116.605 1296.61 105.908 1317.63 105.908H1320.68C1340.56 105.908 1353.93 118.135 1357.37 134.565C1357.75 136.859 1360.04 138.384 1362.33 138.384H1388.7C1391.75 138.384 1394.05 135.711 1394.05 132.656C1391.37 98.6475 1364.24 75.7207 1317.63 75.7207C1279.04 75.7207 1246.55 97.502 1246.55 134.183C1246.55 164.753 1272.92 182.328 1306.55 188.825L1334.44 194.174C1353.16 197.61 1360.42 206.019 1360.42 218.628C1360.42 233.912 1345.14 243.464 1324.89 243.464H1321.83C1300.05 243.464 1284 233.533 1280.18 215.191C1279.8 212.513 1277.51 210.988 1274.83 210.988H1249.23C1245.8 210.988 1243.5 214.043 1243.88 217.103C1248.47 250.727 1274.45 274.033 1321.45 274.033C1365.77 274.033 1396.72 251.106 1396.72 216.719C1396.72 184.624 1376.09 167.428 1343.99 160.934L1344 160.931Z" fill="white"/> <path d="M98.7316 76.2394C44.2182 76.2394 0 120.46 0 174.971C0 229.869 44.2182 274.087 98.7316 274.087C153.627 274.087 197.85 229.869 197.85 174.971C197.85 120.46 153.627 76.2394 98.7316 76.2394ZM98.7316 239.78C63.2812 239.78 34.3074 210.803 34.3074 174.971C34.3074 139.518 63.2812 110.165 98.7316 110.165C134.566 110.165 163.538 139.136 163.538 174.971C163.538 210.803 134.566 239.78 98.7316 239.78ZM344.995 79.6686H248.929C240.164 79.6686 232.919 86.5321 232.919 95.2999V264.935C232.919 267.608 235.207 269.894 238.257 269.894H263.799C266.847 269.894 269.135 267.605 269.135 264.935V118.171C269.135 115.122 271.422 112.838 274.471 112.838H344.998C348.048 112.838 350.332 110.547 350.332 107.497V85.0072C350.332 81.9573 348.048 79.6686 344.998 79.6686H344.995ZM396.838 41.5527C408.274 41.5527 417.803 32.4031 417.803 20.5879C417.803 9.14963 408.274 0 396.838 0C385.4 0 375.876 9.14963 375.876 20.5879C375.876 32.4031 385.4 41.5527 396.838 41.5527ZM409.417 80.048H383.878C380.828 80.048 378.539 82.3417 378.539 85.389V264.935C378.539 267.985 380.828 270.273 383.878 270.273H409.417C412.467 270.273 414.756 267.985 414.756 264.935V85.389C414.756 82.3417 412.467 80.048 409.417 80.048ZM592.782 85.0072V101.4C592.782 102.925 591.254 103.304 590.49 102.163C581.341 88.4389 560.755 75.8601 535.598 75.8601C489.47 75.8601 451.349 108.261 451.349 173.069C451.349 237.873 490.231 273.708 535.598 273.708C560.376 273.708 579.434 262.272 590.49 247.02C591.254 245.877 592.782 246.641 592.782 247.786V308.784C592.782 311.452 590.491 314.115 587.441 314.115H481.845C479.18 314.115 477.273 316.024 477.273 318.313V340.802C477.273 343.852 479.562 346.136 482.612 346.136H613.367C621.755 346.136 628.993 339.275 628.993 330.51V85.0097C628.993 82.3417 626.705 79.6711 623.657 79.6711H598.115C595.065 79.6711 592.782 82.3442 592.782 85.0097V85.0072ZM540.552 243.588H537.123C509.676 243.588 487.568 219.197 487.568 173.069C487.568 127.324 511.204 106.354 539.032 106.354H542.461C568.765 106.354 592.782 131.896 592.782 173.069C592.782 213.476 567.24 243.588 540.552 243.588ZM688.463 41.5527C699.902 41.5527 709.428 32.4031 709.428 20.5879C709.428 9.14963 699.902 0 688.463 0C677.025 0 667.501 9.14963 667.501 20.5879C667.501 32.4031 677.025 41.5527 688.463 41.5527ZM701.045 80.048H675.503C672.453 80.048 670.164 82.3417 670.164 85.389V264.935C670.164 267.985 672.453 270.273 675.503 270.273H701.045C704.092 270.273 706.381 267.985 706.381 264.935V85.389C706.381 82.3417 704.092 80.048 701.045 80.048ZM896.604 80.048H762.801C754.033 80.048 746.788 87.2983 746.788 96.0636V264.935C746.788 267.985 749.077 270.273 752.126 270.273H778.809C781.098 269.894 783.002 267.605 783.002 264.935V118.935C783.002 115.883 784.909 113.599 788.338 113.599H870.68C873.73 113.599 876.016 115.883 876.016 118.553V264.935C876.016 267.985 878.686 270.273 881.357 270.273H906.894C909.944 270.273 912.235 267.985 912.235 264.935V96.0636C912.235 87.2983 905.371 80.048 896.604 80.048ZM1122.66 237.494H1112.37C1109.32 237.494 1107.04 234.823 1107.04 232.152V148.291C1107.04 109.406 1078.83 76.2394 1029.65 76.2394C989.62 76.2394 959.124 97.586 953.788 128.844C953.021 132.275 955.692 134.946 959.124 134.946H984.666C986.955 134.946 989.238 133.421 989.62 131.135C993.434 115.506 1009.06 106.354 1029.65 106.354C1060.15 106.354 1070.81 120.078 1070.81 131.517C1070.81 156.677 1028.12 158.579 1028.12 158.579C1009.06 160.106 949.21 166.588 949.21 217.667C949.21 249.688 976.277 274.087 1012.11 274.087C1036.89 274.087 1058.24 261.508 1068.53 247.017C1069.29 245.874 1070.81 246.638 1070.81 247.784V254.268C1070.81 263.033 1078.06 270.273 1086.83 270.273H1122.66C1125.71 270.273 1127.99 267.605 1127.99 264.935V242.445C1127.99 239.78 1125.71 237.494 1122.66 237.494ZM1070.81 165.442V201.659C1070.81 223.769 1047.94 243.588 1017.83 243.588C993.813 243.588 985.425 231.394 985.425 216.147C985.425 175.735 1058.62 181.835 1068.53 164.681C1069.29 163.538 1070.82 163.917 1070.82 165.445L1070.81 165.442ZM1212.63 237.873H1202.34C1199.29 237.873 1197 235.202 1197 232.537V9.52647C1197 6.48162 1194.71 4.19044 1191.66 4.19044H1166.12C1163.07 4.19044 1160.79 6.48162 1160.79 9.52647V254.647C1160.79 263.412 1168.03 270.273 1176.79 270.273H1212.63C1215.68 270.273 1217.97 267.985 1217.97 264.935V242.827C1217.97 240.159 1215.68 237.873 1212.63 237.873Z" fill="white"/> </svg>