<svg xmlns="http://www.w3.org/2000/svg" width="491" height="61" viewBox="0 0 491 61" fill="none"> <path d="M0.548828 1.31975H5.27691L29.4046 37.642L53.5373 1.31975H58.18V59.3679H53.2057V10.6076L31.4797 43.1966H27.3345L5.60854 10.6076V59.3679H0.551343V1.31975H0.548828ZM93.4244 1.31975H98.2354L122.283 59.3679H116.974L110.922 44.7743H80.735L74.7659 59.3679H69.3746L93.4244 1.31975ZM109.015 40.1291L95.8286 8.20084L82.7272 40.1291H109.013H109.015ZM133.563 1.31975H155.04C158.909 1.31975 162.293 2.06593 165.197 3.56072C168.099 5.053 170.352 7.1532 171.955 9.86141C173.56 12.5721 174.359 15.7527 174.359 19.398C174.359 24.1512 173.033 28.1055 170.382 31.2583C167.727 34.4087 164.107 36.3707 159.519 37.1445L175.274 59.3679H169.219L153.631 37.559H138.622V59.3679H133.565V1.31975H133.563ZM154.54 32.7506C159.127 32.7506 162.722 31.5623 165.323 29.1857C167.92 26.8066 169.217 23.5457 169.217 19.4005C169.217 15.3106 167.918 12.0747 165.323 9.69814C162.72 7.32155 159.127 6.13327 154.54 6.13327H138.62V32.7531H154.54V32.7506ZM190.282 1.31975H195.342V27.4422H204.541C208.966 27.4422 212.312 26.6685 214.578 25.1184C216.844 23.5709 218.665 21.0309 220.05 17.4887L226.187 1.31975H231.493L224.526 19.4834C223.587 21.9152 222.481 23.9603 221.21 25.6183C219.939 27.2764 218.389 28.6029 216.568 29.5952L233.9 59.3679H228.094L211.925 31.4241C209.877 31.9743 207.42 32.2507 204.541 32.2507H195.342V59.3679H190.282V1.31975ZM246.835 1.31975H281.002V6.04532H251.895V27.4397H278.844V32.0824H251.895V54.6374H281.914V59.3654H246.835V1.31724V1.31975ZM311.104 6.12824H291.119V1.31975H336.146V6.12824H316.075V59.3679H311.101V6.12824H311.104ZM348.672 1.31975H353.729V59.3679H348.672V1.31975ZM372.473 1.31975H377.199L412.523 50.663V1.31975H417.5V59.3679H412.775L377.447 9.94434V59.3679H372.473V1.31975ZM461.535 60.4457C455.898 60.4457 450.853 59.1619 446.404 56.5894C441.955 54.0193 438.47 50.4545 435.955 45.8947C433.438 41.335 432.184 36.1497 432.184 30.3464C432.184 24.5405 433.428 19.3603 435.915 14.798C438.402 10.2383 441.872 6.67087 446.318 4.10083C450.77 1.52828 455.787 0.24707 461.369 0.24707C468.007 0.24707 473.81 1.98801 478.784 5.47251C483.758 8.95198 487.188 13.5444 489.067 19.2372H483.593C481.769 14.8709 478.937 11.4567 475.091 8.9947C471.252 6.5352 466.758 5.30672 461.618 5.30672C456.862 5.30672 452.649 6.35937 448.969 8.4571C445.296 10.5599 442.432 13.4992 440.387 17.2877C438.339 21.0736 437.319 25.4274 437.319 30.3489C437.319 35.2126 438.342 39.5513 440.387 43.3699C442.432 47.181 445.293 50.1405 448.969 52.2407C452.647 54.3409 456.862 55.3911 461.618 55.3911C466.04 55.3911 469.994 54.464 473.473 52.6125C476.958 50.7585 479.736 48.1884 481.809 44.8999C483.884 41.6114 485.085 37.863 485.419 33.6625H459.709V28.8516H490.808C490.863 34.9337 489.672 40.3678 487.243 45.1486C484.806 49.9294 481.367 53.6777 476.92 56.3834C472.468 59.0941 467.341 60.4457 461.535 60.4457Z" fill="#CCCCCC"/> </svg>