<svg xmlns="http://www.w3.org/2000/svg" width="351" height="61" viewBox="0 0 351 61" fill="none"> <path d="M24.0498 1.56102H28.8608L52.9081 59.6092H47.5997L41.5476 45.0155H11.3604L5.39129 59.6092H0L24.0498 1.56102ZM39.6408 40.3703L26.454 8.44206L13.3526 40.3703H39.6384H39.6408ZM87.2406 60.687C81.6031 60.687 76.5585 59.4032 72.1068 56.8306C67.6575 54.2606 64.173 50.6957 61.6608 46.1359C59.1435 41.5737 57.8874 36.3909 57.8874 30.5876C57.8874 24.7818 59.131 19.6015 61.6181 15.0392C64.1052 10.4795 67.5771 6.91214 72.0238 4.3421C76.473 1.76955 81.4925 0.488281 87.0747 0.488281C93.7096 0.488281 99.5154 2.22928 104.49 5.71378C109.464 9.19325 112.893 13.7857 114.772 19.4784H109.298C107.472 15.1121 104.64 11.698 100.797 9.23596C96.958 6.77646 92.461 5.54793 87.3209 5.54793C82.5677 5.54793 78.3522 6.60057 74.6743 8.6983C70.9988 10.8011 68.1348 13.7405 66.0924 17.5289C64.0449 21.3149 63.0224 25.6686 63.0224 30.5901C63.0224 35.4539 64.0474 39.7925 66.0924 43.6111C68.1348 47.4222 70.9963 50.3817 74.6743 52.4819C78.3497 54.5821 82.5677 55.6323 87.3209 55.6323C91.745 55.6323 95.6968 54.7052 99.1788 52.8537C102.661 50.9997 105.439 48.4296 107.514 45.1411C109.587 41.8525 110.788 38.1043 111.122 33.9038H85.4116V29.0928H116.511C116.566 35.175 115.378 40.609 112.946 45.3898C110.512 50.1706 107.07 53.9189 102.623 56.6246C98.1739 59.3353 93.0439 60.687 87.2406 60.687ZM130.944 1.56102H165.108V6.28658H136.001V27.6809H162.95V32.3236H136.001V54.8786H166.02V59.6067H130.944V1.5585V1.56102ZM181.445 1.56102H186.173L221.495 50.9042V1.56102H226.472V59.6092H221.747L186.419 10.1856V59.6092H181.445V1.56102ZM270.592 60.687C264.952 60.687 259.895 59.4032 255.416 56.8306C250.939 54.2606 247.442 50.6957 244.927 46.1359C242.412 41.5737 241.156 36.3909 241.156 30.5876C241.156 24.7818 242.415 19.6015 244.927 15.0392C247.445 10.4795 250.939 6.91214 255.416 4.3421C259.895 1.76955 264.952 0.488281 270.592 0.488281C277.225 0.488281 283.073 2.28705 288.133 5.87706C293.188 9.46958 296.66 14.3082 298.536 20.3904H293.23C291.572 15.803 288.726 12.1803 284.686 9.52737C280.651 6.87192 275.979 5.54793 270.673 5.54793C265.975 5.54793 261.774 6.60057 258.066 8.6983C254.363 10.8011 251.474 13.758 249.402 17.5691C247.326 21.3852 246.291 25.7264 246.291 30.5901C246.291 35.4539 247.329 39.7925 249.402 43.6111C251.474 47.4222 254.361 50.3817 258.066 52.4819C261.772 54.5821 265.975 55.6323 270.673 55.6323C276.145 55.6323 280.953 54.248 285.103 51.4871C289.248 48.7211 292.122 44.9351 293.728 40.1241H299.036C297.873 44.2719 295.913 47.892 293.147 50.9871C290.384 54.0847 287.065 56.4764 283.196 58.1621C279.33 59.8504 275.125 60.6919 270.592 60.6919V60.687ZM323.749 38.2977L301.772 1.56102H307.578L326.322 32.9089L344.98 1.56102H350.701L328.726 38.1319V59.6092H323.752V38.2977H323.749Z" fill="#CCCCCC"/> </svg>