<svg xmlns="http://www.w3.org/2000/svg" width="67" height="360" viewBox="0 0 67 360" fill="none"> <path d="M66.7104 345.759V13.3451C66.7104 6.10227 60.9925 0 53.3678 0H4.57481C1.90177 0 0 1.9068 0 4.57482V26.3033C0 28.9738 1.90428 30.8806 4.57481 30.8806H28.9687C31.6392 30.8806 33.5435 32.7824 33.5435 35.4529V324.026C33.5435 326.314 31.6367 328.6 28.9687 328.6H4.57481C1.90177 328.6 0 330.507 0 332.793V354.904C0 357.19 1.90428 359.476 4.57481 359.476H53.3678C60.9925 359.476 66.7104 353.374 66.7104 345.752V345.759Z" fill="white"/> </svg>