<svg xmlns="http://www.w3.org/2000/svg" width="579" height="61" viewBox="0 0 579 61" fill="none"> <path d="M0.548828 1.07777H18.9561C25.7015 1.07777 30.9546 2.75092 34.713 6.09473C38.4713 9.43854 40.353 14.1239 40.353 20.1533C40.353 26.1777 38.4713 30.8605 34.713 34.2094C30.9546 37.5507 25.7015 39.2264 18.9561 39.2264H5.60603V59.1285H0.548828V1.08028V1.07777ZM18.8758 34.5787C24.2922 34.5787 28.3821 33.3753 31.1481 30.9736C33.9141 28.5669 35.2933 24.9894 35.2933 20.2337C35.2933 15.4805 33.9116 11.8981 31.1481 9.49634C28.3821 7.0896 24.2922 5.88871 18.8758 5.88871H5.60603V34.5812H18.8758V34.5787ZM53.6227 1.07777H75.1C78.9689 1.07777 82.3529 1.8264 85.2571 3.31868C88.1587 4.81096 90.4122 6.91122 92.015 9.61943C93.6204 12.3302 94.4193 15.5107 94.4193 19.1559C94.4193 23.9116 93.0928 27.8634 90.4424 31.0163C87.7869 34.1667 84.1667 36.1288 79.5794 36.9025L95.3312 59.1259H89.2792L73.6907 37.317H58.6824V59.1259H53.6252V1.07777H53.6227ZM74.6001 32.5086C79.1874 32.5086 82.7825 31.3203 85.3802 28.9437C87.9804 26.5646 89.2767 23.3037 89.2767 19.1585C89.2767 15.0685 87.9779 11.8328 85.3802 9.45616C82.78 7.07957 79.1874 5.89123 74.6001 5.89123H58.6799V32.5111H74.6001V32.5086ZM135.467 60.2037C129.664 60.2037 124.496 58.9325 119.961 56.3926C115.429 53.8477 111.889 50.2954 109.347 45.7356C106.805 41.1759 105.536 35.9655 105.536 30.1044C105.536 24.2433 106.807 19.0329 109.347 14.4756C111.892 9.91339 115.429 6.35851 119.961 3.81862C124.496 1.2737 129.664 0.00502942 135.467 0.00502942C141.331 0.00502942 146.523 1.27621 151.058 3.81862C155.59 6.36102 159.117 9.91339 161.632 14.4756C164.149 19.0329 165.403 24.2433 165.403 30.1044C165.403 35.9655 164.147 41.1759 161.632 45.7356C159.115 50.2954 155.59 53.8502 151.058 56.3926C146.523 58.935 141.331 60.2037 135.467 60.2037ZM110.674 30.1019C110.674 34.9656 111.724 39.3067 113.824 43.1228C115.924 46.9339 118.841 49.8934 122.572 51.9936C126.302 54.0939 130.603 55.144 135.464 55.144C140.331 55.144 144.642 54.0914 148.403 51.9936C152.161 49.8909 155.093 46.949 157.193 43.1631C159.293 39.3796 160.341 35.0209 160.341 30.1019C160.341 25.1803 159.291 20.8291 157.193 17.0406C155.09 13.2522 152.161 10.3103 148.403 8.21003C144.644 6.10979 140.331 5.05972 135.464 5.05972C130.603 5.05972 126.305 6.1123 122.572 8.21003C118.841 10.3128 115.922 13.2522 113.824 17.0406C111.721 20.8266 110.674 25.1803 110.674 30.1019ZM205.376 60.2037C199.738 60.2037 194.693 58.9199 190.244 56.3474C185.792 53.7773 182.311 50.2124 179.796 45.6527C177.278 41.0929 176.025 35.9077 176.025 30.1044C176.025 24.2986 177.268 19.1182 179.756 14.556C182.243 9.99876 185.712 6.42889 190.159 3.85885C194.611 1.2863 199.627 0.00502942 205.21 0.00502942C211.845 0.00502942 217.65 1.74603 222.625 5.23053C227.599 8.71001 231.028 13.3024 232.907 18.9952H227.433C225.609 14.6289 222.778 11.2147 218.932 8.75272C215.093 6.29322 210.596 5.06468 205.456 5.06468C200.703 5.06468 196.49 6.11733 192.809 8.21506C189.136 10.3178 186.272 13.2572 184.227 17.0457C182.18 20.8316 181.16 25.1854 181.16 30.1069C181.16 34.9706 182.182 39.3117 184.227 43.1279C186.272 46.939 189.134 49.8984 192.809 51.9986C196.487 54.0989 200.703 55.149 205.456 55.149C209.88 55.149 213.834 54.222 217.314 52.3705C220.798 50.5164 223.574 47.9464 225.649 44.6578C227.725 41.3693 228.925 37.621 229.259 33.4205H203.549V28.6096H234.648C234.701 34.6918 233.513 40.1257 231.083 44.9066C228.647 49.6874 225.207 53.4357 220.761 56.1414C216.309 58.8521 211.181 60.2037 205.376 60.2037ZM249.079 1.07777H270.556C274.425 1.07777 277.811 1.8264 280.713 3.31868C283.615 4.81096 285.871 6.91122 287.471 9.61943C289.076 12.3302 289.878 15.5107 289.878 19.1559C289.878 23.9116 288.549 27.8634 285.898 31.0163C283.243 34.1667 279.625 36.1288 275.035 36.9025L290.79 59.1259H284.738L269.147 37.317H254.141V59.1259H249.081V1.07777H249.079ZM270.056 32.5086C274.646 32.5086 278.241 31.3203 280.839 28.9437C283.436 26.5646 284.735 23.3037 284.735 19.1585C284.735 15.0685 283.434 11.8328 280.839 9.45616C278.238 7.07957 274.646 5.89123 270.056 5.89123H254.138V32.5111H270.056V32.5086ZM305.798 1.07777H339.965V5.80333H310.858V27.1977H337.807V31.8428H310.858V54.3954H340.876V59.1234H305.798V1.07525V1.07777ZM374.129 60.2037C369.762 60.2037 365.919 59.4575 362.602 57.9653C359.284 56.4705 356.701 54.3451 354.85 51.5791C352.993 48.8131 352.013 45.5798 351.905 41.8768H356.88C357.103 46.135 358.761 49.4512 361.856 51.8278C364.949 54.2069 369.044 55.3927 374.129 55.3927C378.884 55.3927 382.643 54.4104 385.409 52.4509C388.172 50.4863 389.551 47.8208 389.551 44.4493C389.551 41.407 388.268 38.9324 385.695 37.0256C383.125 35.1163 378.937 33.5285 373.131 32.2573C365.946 30.5992 360.761 28.4563 357.586 25.831C354.408 23.2032 352.817 19.7338 352.817 15.4228C352.817 10.7223 354.601 6.97651 358.166 4.18791C361.731 1.39428 366.584 0 372.717 0C379.131 0 384.175 1.54754 387.851 4.64264C391.529 7.73523 393.478 12.0814 393.697 17.6637H388.722C388.501 13.5737 386.994 10.4058 384.203 8.16734C381.412 5.92892 377.583 4.81094 372.717 4.81094C368.074 4.81094 364.439 5.77818 361.814 7.71513C359.188 9.64956 357.877 12.2196 357.877 15.4277C357.877 18.357 359.133 20.7764 361.648 22.6857C364.165 24.5925 368.408 26.2079 374.377 27.5343C381.62 29.1949 386.816 31.363 389.966 34.0461C393.116 36.7292 394.694 40.1685 394.694 44.369C394.694 49.2352 392.84 53.0915 389.139 55.9378C385.434 58.7867 380.429 60.2062 374.129 60.2062V60.2037ZM428.612 60.2037C424.246 60.2037 420.402 59.4575 417.086 57.9653C413.767 56.4705 411.182 54.3451 409.33 51.5791C407.476 48.8131 406.497 45.5798 406.389 41.8768H411.363C411.584 46.135 413.245 49.4512 416.34 51.8278C419.432 54.2069 423.525 55.3927 428.612 55.3927C433.365 55.3927 437.126 54.4104 439.889 52.4509C442.653 50.4863 444.035 47.8208 444.035 44.4493C444.035 41.407 442.748 38.9324 440.178 37.0256C437.606 35.1163 433.42 33.5285 427.615 32.2573C420.427 30.5992 415.244 28.4563 412.069 25.831C408.891 23.2032 407.301 19.7338 407.301 15.4228C407.301 10.7223 409.084 6.97651 412.649 4.18791C416.214 1.39428 421.065 0 427.2 0C433.614 0 438.658 1.54754 442.334 4.64264C446.009 7.73523 447.959 12.0814 448.18 17.6637H443.206C442.982 13.5737 441.477 10.4058 438.684 8.16734C435.893 5.92892 432.066 4.81094 427.2 4.81094C422.557 4.81094 418.922 5.77818 416.294 7.71513C413.669 9.64956 412.358 12.2196 412.358 15.4277C412.358 18.357 413.616 20.7764 416.129 22.6857C418.646 24.5925 422.892 26.2079 428.861 27.5343C436.104 29.1949 441.299 31.363 444.449 34.0461C447.6 36.7292 449.177 40.1685 449.177 44.369C449.177 49.2352 447.321 53.0915 443.62 55.9378C439.917 58.7867 434.91 60.2062 428.612 60.2062V60.2037ZM464.434 1.07777H469.494V59.1259H464.434V1.07777ZM480.688 1.07777H486.077L506.399 52.1595L515.106 30.1019L526.716 1.07777H532.021L508.803 59.1259H503.992L480.691 1.07777H480.688ZM543.216 1.07777H577.38V5.80333H548.273V27.1977H575.222V31.8428H548.273V54.3954H578.292V59.1234H543.216V1.07525V1.07777Z" fill="#CCCCCC"/> </svg>