<svg xmlns="http://www.w3.org/2000/svg" width="48" height="48" viewBox="0 0 48 48" fill="none">
    <path d="M24.0755 6.58057C14.1952 6.58057 6.15445 14.3252 6.15097 23.8431C6.14865 26.8869 6.97548 29.8575 8.54323 32.4739L6 41.4193L15.5028 39.0189C18.1462 40.4016 21.0854 41.1229 24.0685 41.1208H24.0755C33.9557 41.1208 41.9965 33.375 42 23.8571C42.0023 19.2468 40.1396 14.907 36.7545 11.645C33.3705 8.38173 28.8705 6.58173 24.0755 6.58057ZM24.0755 38.2048H24.0697C21.3964 38.2048 18.7742 37.5127 16.4865 36.2051L15.9406 35.8939L10.3037 37.3176L11.8088 32.0221L11.4546 31.4798C9.96686 29.2108 9.17489 26.5564 9.17613 23.8431C9.17961 15.9313 15.864 9.49657 24.0813 9.49657C28.0599 9.49773 31.8004 10.9923 34.6142 13.7039C37.428 16.4155 38.976 20.0213 38.9737 23.8559C38.9702 31.7678 32.287 38.2048 24.0743 38.2048H24.0755ZM32.2475 27.4571C31.7992 27.2422 29.5974 26.1982 29.1863 26.0531C28.7764 25.9102 28.4779 25.8359 28.1795 26.2679C27.8822 26.6999 27.0228 27.6719 26.7627 27.9588C26.5003 28.2468 26.239 28.2816 25.7907 28.0668C25.3425 27.8508 23.899 27.3955 22.1895 25.9253C20.8575 24.7826 19.9587 23.3705 19.6974 22.9373C19.4361 22.5065 19.6695 22.2731 19.8937 22.0582C20.0946 21.8666 20.3419 21.5554 20.5649 21.3034C20.7879 21.0514 20.8622 20.8714 21.0132 20.5834C21.1618 20.2966 21.0875 20.0434 20.9748 19.8286C20.8622 19.6114 19.968 17.4886 19.5929 16.6257C19.2306 15.785 18.8613 15.8976 18.5861 15.8837C18.3248 15.8721 18.0275 15.8686 17.7267 15.8686C17.4306 15.8686 16.944 15.9766 16.5329 16.4086C16.123 16.8406 14.9652 17.8834 14.9652 20.0062C14.9652 22.1302 16.5701 24.1811 16.7942 24.4691C17.0183 24.7559 19.9529 29.1142 24.4459 30.9839C25.5143 31.4264 26.3481 31.6923 26.9996 31.8921C28.0726 32.2207 29.0493 32.1731 29.8204 32.0628C30.6797 31.9385 32.4705 31.0199 32.8421 30.0131C33.216 29.0062 33.216 28.1422 33.1045 27.9622C32.9954 27.7822 32.6957 27.6742 32.2475 27.4571V27.4571Z" fill="white"/>
</svg>