<svg xmlns="http://www.w3.org/2000/svg" width="945" height="360" viewBox="0 0 945 360" fill="none"> <path d="M877.494 13.3503V345.764C877.494 353.386 883.596 359.489 890.837 359.489H940.014C942.303 359.489 944.21 357.2 944.21 354.916V332.806C944.21 330.517 942.3 328.613 940.014 328.613H915.236C912.95 328.613 910.661 326.324 910.661 324.038V35.4656C910.661 32.7926 912.952 30.8933 915.236 30.8933H940.014C942.303 30.8933 944.21 28.984 944.21 26.316V4.58751C944.21 1.91698 942.3 0.0126953 940.014 0.0126953H890.837C883.596 0.0126953 877.494 6.11496 877.494 13.3578V13.3503Z" fill="white"/> <path fill-rule="evenodd" clip-rule="evenodd" d="M740.373 142.817L672.038 311.618C671.535 312.864 670.392 313.635 669.053 313.635H621.805C620.463 313.635 619.32 312.864 618.82 311.623L549.972 142.02V310.412C549.972 312.186 548.523 313.633 546.751 313.633H503.277C501.503 313.633 500.056 312.183 500.056 310.412V78.4127C500.056 76.6365 501.506 75.192 503.277 75.192H573.748C575.097 75.192 576.253 75.9758 576.745 77.2294L645.43 251.299L714.118 77.2294C714.613 75.9758 715.766 75.192 717.112 75.192H787.584C789.36 75.192 790.804 76.639 790.804 78.4127V310.412C790.804 312.186 789.357 313.633 787.584 313.633H743.843C742.067 313.633 740.627 312.188 740.622 310.414L740.376 142.817H740.373ZM181.336 264.757H73.5304L55.098 311.593C54.6031 312.849 53.4525 313.635 52.1034 313.635H3.23502C2.12963 313.635 1.17749 313.128 0.55947 312.208C-0.0585444 311.291 -0.169084 310.216 0.250463 309.193L95.0228 77.1942C95.5277 75.9582 96.6683 75.192 98.0023 75.192H156.862C158.201 75.192 159.339 75.9582 159.844 77.1942L254.614 309.193C255.033 310.218 254.923 311.294 254.305 312.208C253.689 313.128 252.735 313.635 251.632 313.635H202.761C201.409 313.635 200.259 312.849 199.766 311.593L181.334 264.757H181.336ZM414.147 176.715L486.123 308.867C486.683 309.897 486.661 311.05 486.063 312.055C485.467 313.06 484.462 313.633 483.294 313.633H430.914C429.695 313.633 428.648 313.002 428.072 311.929L380.757 223.513L317.435 312.279C316.81 313.155 315.883 313.633 314.81 313.633H273.501C271.725 313.633 270.28 312.183 270.28 310.412V78.4127C270.28 76.6365 271.727 75.192 273.501 75.192H319.131C320.907 75.192 322.352 76.639 322.352 78.4127V228.5L428.809 76.5637C429.429 75.6718 430.364 75.1895 431.449 75.1895H480.322C481.561 75.1895 482.618 75.8376 483.186 76.938C483.754 78.0384 483.664 79.2769 482.948 80.2793L414.147 176.712V176.715ZM162.005 215.625L127.433 127.766L92.8622 215.625H162.005Z" fill="url(#paint0_linear_39_98)"/> <defs> <linearGradient id="paint0_linear_39_98" x1="348.801" y1="348.965" x2="442.003" y2="39.8596" gradientUnits="userSpaceOnUse"> <stop stop-color="#EDA654"/> <stop offset="0.25098" stop-color="#F26D3D"/> <stop offset="0.356863" stop-color="#E55755"/> <stop offset="0.490196" stop-color="#D8416E"/> <stop offset="0.788235" stop-color="#7A3ED3"/> <stop offset="1" stop-color="#573FDA"/> </linearGradient> </defs> </svg>