<svg xmlns="http://www.w3.org/2000/svg" width="48" height="48" viewBox="0 0 48 48" fill="none">
    <path fill-rule="evenodd" clip-rule="evenodd" d="M6.74979 21.7758C17.4872 17.2599 24.6471 14.2827 28.2296 12.8442C38.4584 8.73724 40.5838 8.02381 41.9692 8.00025C42.2739 7.99507 42.9551 8.06796 43.3964 8.41363C43.769 8.70551 43.8716 9.09979 43.9206 9.37652C43.9697 9.65325 44.0308 10.2837 43.9822 10.7762C43.4279 16.3984 41.0295 30.0419 39.8093 36.3389C39.293 39.0033 38.2763 39.8967 37.2921 39.9841C35.1532 40.1741 33.529 38.6196 31.4573 37.3087C28.2156 35.2573 26.3842 33.9804 23.2376 31.9787C19.6011 29.6653 21.9585 28.3939 24.0309 26.316C24.5733 25.7722 33.9974 17.4974 34.1798 16.7467C34.2026 16.6528 34.2238 16.3029 34.0085 16.1181C33.7931 15.9333 33.4752 15.9965 33.2459 16.0467C32.9207 16.118 27.742 19.4222 17.7097 25.9596C16.2398 26.9339 14.9083 27.4087 13.7154 27.3838C12.4003 27.3564 9.87055 26.666 7.98995 26.0759C5.68332 25.3521 3.85005 24.9694 4.00969 23.7402C4.09284 23.0999 5.00621 22.4451 6.74979 21.7758Z" fill="url(#paint0_linear_137_3590)"/>
    <defs>
        <linearGradient id="paint0_linear_137_3590" x1="43.337" y1="8.21333" x2="22.3633" y2="31.8486" gradientUnits="userSpaceOnUse">
            <stop stop-color="white"/>
            <stop offset="1" stop-color="white"/>
        </linearGradient>
</defs>
</svg>